<?xml version="1.0" encoding="utf-8"?>
<!-- Svg Vector Icons : http://www.onlinewebfonts.com/icon -->
<!DOCTYPE svg PUBLIC "-//W3C//DTD SVG 1.1//EN" "http://www.w3.org/Graphics/SVG/1.1/DTD/svg11.dtd">
<svg version="1.1" xmlns="http://www.w3.org/2000/svg" xmlns:xlink="http://www.w3.org/1999/xlink" x="0px" y="0px" viewBox="0 0 1000 1000" enable-background="new 0 0 1000 1000" xml:space="preserve">
<metadata> Svg Vector Icons : http://www.onlinewebfonts.com/icon </metadata>
<g><g><path d="M990,486.6h-76.4C906.6,269,731,93.4,513.4,86.4V10h-26.7v76.4C269,93.4,93.4,269,86.4,486.6H10v26.7h76.4C93.4,731,269,906.6,486.6,913.6V990h26.7v-76.4C731,906.6,906.6,731,913.6,513.4H990L990,486.6L990,486.6z M886.9,486.6H780.4v-71.2h-26.7v71.2H646.9v-71.2h-26.7v71.2H513.4V379.8h71.2v-26.7h-71.2V246.3h71.2v-26.7h-71.2V113.1C716.2,120.1,879.9,283.8,886.9,486.6z M486.6,113.1v106.5h-71.2v26.7h71.2v106.8h-71.2v26.7h71.2v106.8H379.8v-71.2h-26.7v71.2H246.3v-71.2h-26.7v71.2H113.1C120.1,283.8,283.8,120.1,486.6,113.1z M113.1,513.4h106.5v71.2h26.7v-71.2h106.8v71.2h26.7v-71.2h106.8v106.8h-71.2v26.7h71.2v106.8h-71.2v26.7h71.2v106.5C283.8,879.9,120.1,716.2,113.1,513.4z M513.4,886.9V780.4h71.2v-26.7h-71.2V646.9h71.2v-26.7h-71.2V513.3h106.8v71.2h26.7v-71.2h106.8v71.2h26.7v-71.2h106.5C879.9,716.2,716.2,879.9,513.4,886.9z"/></g><g></g><g></g><g></g><g></g><g></g><g></g><g></g><g></g><g></g><g></g><g></g><g></g><g></g><g></g><g></g></g>
</svg>